# xmcd CD database file generated by MAGIX_Freedb v0.9beta0
# 
# Track frame offsets:
#      150
#      14668
#      27251
#      41382
#      56332
#      70911
#      82184
#      94753
#      108131
#      120326
#      132737
#      147309
# 
# Disc length: 2208 seconds
# 
# Revision: 0 
# Processed by: cddbd v1.4PL0 Copyright (c) Steve Scherf et al.
# Submitted via: MAGIX_Freedb v0.9beta0
# 
DISCID=a2089e0c
DTITLE=Steirerbluat - I will leb'n
DYEAR=1900
DGENRE=
TTITLE0=Steirerbluat - Steirerbluatzeit
TTITLE1=Steirerbluat - Boarisch is super
TTITLE2=Steirerbluat - I will leb'n
TTITLE3=Steirerbluat - Flieg mit mir
TTITLE4=Steirerbluat - Du bist mein Stern
TTITLE5=Steirerbluat - Auf d' Nacht
TTITLE6=Steirerbluat - Weil I auf Madl so wie...
TTITLE7=Steirerbluat - Alle alle alle san heit...
TTITLE8=Steirerbluat - Hallo Freunde hallo
TTITLE9=Steirerbluat - A starker Tag
TTITLE10=Steirerbluat - I mog die Sonn'
TTITLE11=Steirerbluat - Steirerbluat Hitmix
EXTD=
EXTT0=
EXTT1=
EXTT2=
EXTT3=
EXTT4=
EXTT5=
EXTT6=
EXTT7=
EXTT8=
EXTT9=
EXTT10=
EXTT11=
PLAYORDER=
